PathFileType	4	(X/Y/Z)	C:/Users/opensim2020/Desktop/walking_exp_matlab/subject03_walking04_static.trc																																																																																																																																																							
DataRate	CameraRate	NumFrames	NumMarkers	Units	OrigDataRate	OrigDataStartFrame	OrigNumFrames																																																																																																																																																			
100	100	4	51	mm	100	354	196																																																																																																																																																			
Frame#	Time	LFHD			RFHD			LBHD			RBHD			C7			T10			CLAV			STRN			RBAK			LSHO			LUPA			LELB			LFRM			LWRA			LWRB			LFIN			RSHO			RUPA			RELB			RFRM			RWRA			RWRB			RFIN			LASI			RASI			LPSI			RPSI			LTHI			LKNE			LTIB			LANK			LHEE			LTOE			RTHI			RKNE			RTIB			RANK			RHEE			RTOE			*39			*40			*41			*42			*43			*44			*45			*46			*47			*48			*49			*50		
		X1	Y1	Z1	X2	Y2	Z2	X3	Y3	Z3	X4	Y4	Z4	X5	Y5	Z5	X6	Y6	Z6	X7	Y7	Z7	X8	Y8	Z8	X9	Y9	Z9	X10	Y10	Z10	X11	Y11	Z11	X12	Y12	Z12	X13	Y13	Z13	X14	Y14	Z14	X15	Y15	Z15	X16	Y16	Z16	X17	Y17	Z17	X18	Y18	Z18	X19	Y19	Z19	X20	Y20	Z20	X21	Y21	Z21	X22	Y22	Z22	X23	Y23	Z23	X24	Y24	Z24	X25	Y25	Z25	X26	Y26	Z26	X27	Y27	Z27	X28	Y28	Z28	X29	Y29	Z29	X30	Y30	Z30	X31	Y31	Z31	X32	Y32	Z32	X33	Y33	Z33	X34	Y34	Z34	X35	Y35	Z35	X36	Y36	Z36	X37	Y37	Z37	X38	Y38	Z38	X39	Y39	Z39	X40	Y40	Z40	X41	Y41	Z41	X42	Y42	Z42	X43	Y43	Z43	X44	Y44	Z44	X45	Y45	Z45	X46	Y46	Z46	X47	Y47	Z47	X48	Y48	Z48	X49	Y49	Z49	X50	Y50	Z50	X51	Y51	Z51
																																																																																																																																																										
172	1.71	-322.64755	1627.54834	-679.51904	-351.9704	1643.6925	-550.18835	-450.6524	1586.35022	-698.62128	-474.79214	1602.50464	-570.90289	-491.48431	1424.66211	-629.7951	-511.51947	1113.78223	-620.69617	-364.16669	1359.54285	-610.75787	-310.56113	1195.24377	-607.85608	-545.47766	1246.11719	-539.57532	-408.5723	1394.40942	-771.83325	-421.96747	1204.00354	-855.10181	-418.52756	1084.12146	-882.42944	-386.45825	958.95917	-901.09943	-352.73801	841.43982	-888.9447	-388.11087	848.15222	-932.40106	-363.90942	766.50049	-934.7002	-448.06271	1387.6416	-463.6441	-458.12778	1177.47705	-367.76666	-443.94861	1070.276	-333.23526	-424.31805	937.16608	-304.04016	-382.00998	840.91003	-312.9281	-424.94016	839.20917	-279.29349	-397.85809	768.70959	-272.79333	-357.54556	942.29449	-721.57123	-372.94495	943.67926	-488.36624	-520.72064	979.4209	-685.12787	-527.81512	987.83612	-535.95862	-435.61926	645.07141	-773.66272	-450.99863	468.17383	-736.60248	-512.27179	285.55106	-755.43304	-538.90735	74.17093	-729.86615	-580.71924	37.35555	-697.08899	-386.86493	34.21903	-709.24017	-454.55472	652.6402	-443.13297	-455.94684	473.07968	-476.15106	-513.625	293.40775	-463.84308	-547.06189	77.027	-501.69922	-587.21661	42.54113	-553.05365	-404.80212	36.39581	-500.69162	-411.98825	1695.11707	-653.87982	NaN	NaN	NaN	NaN	NaN	NaN	NaN	NaN	NaN	NaN	NaN	NaN	NaN	NaN	NaN	NaN	NaN	NaN	NaN	NaN	NaN	NaN	NaN	NaN	NaN	NaN	NaN	NaN	NaN	NaN	NaN	NaN	NaN
173	1.72	-322.05765	1627.50403	-679.42609	-351.24316	1643.66431	-550.02875	-450.06363	1586.31335	-698.43671	-474.15411	1602.45581	-570.72028	-490.89139	1424.64661	-629.58521	-511.02026	1113.76929	-620.61359	-363.57443	1359.52209	-610.59698	-310.02295	1195.18665	-607.73792	-544.95654	1246.08655	-539.45667	-408.01877	1394.38708	-771.70691	-421.41547	1203.99878	-854.99658	-417.98935	1084.10046	-882.3374	-385.86179	958.99286	-900.98047	-351.98947	841.56732	-888.9538	-387.46613	848.1521	-932.18213	-363.11505	766.505	-934.39911	-447.50006	1387.55994	-463.46872	-457.60318	1177.37329	-367.64789	-443.48453	1070.12817	-333.1825	-423.80905	937.0191	-304.01102	-381.61905	840.68939	-312.96939	-424.54922	839.01782	-279.29745	-397.49658	768.51147	-272.79794	-357.17886	942.23816	-721.53998	-372.49136	943.5899	-488.33313	-520.51074	979.3562	-685.10297	-527.28619	987.83453	-535.91528	-435.39801	645.00299	-773.61548	-450.87054	468.14499	-736.61414	-512.23523	285.55411	-755.40973	-538.91132	74.19756	-729.87762	-580.73083	37.362	-697.0672	-386.85654	34.20911	-709.22253	-454.23892	652.61194	-443.12222	-455.7048	473.05527	-476.13519	-513.48944	293.40247	-463.8551	-546.95691	77.10723	-501.65521	-587.2276	42.54913	-553.05139	-404.8288	36.38652	-500.68442	-411.36432	1695.08032	-653.7876	NaN	NaN	NaN	NaN	NaN	NaN	NaN	NaN	NaN	NaN	NaN	NaN	NaN	NaN	NaN	NaN	NaN	NaN	NaN	NaN	NaN	NaN	NaN	NaN	NaN	NaN	NaN	NaN	NaN	NaN	NaN	NaN	NaN
174	1.73	-321.45941	1627.4635	-679.30939	-350.62906	1643.60205	-549.87976	-449.48346	1586.25952	-698.20044	-473.48508	1602.44385	-570.52759	-490.27353	1424.64734	-629.38965	-510.50549	1113.85901	-620.54791	-363.02383	1359.44019	-610.42651	-309.4819	1195.08374	-607.59558	-544.39166	1246.07983	-539.27271	-407.43918	1394.3772	-771.52985	-420.89642	1204.0448	-854.86871	-417.39389	1084.07483	-882.14966	-385.23209	959.01831	-900.86774	-351.4285	841.63867	-888.89471	-386.73004	848.14697	-932.03308	-362.3364	766.51923	-934.40942	-446.85815	1387.46643	-463.30396	-457.04944	1177.22925	-367.53653	-442.90369	1069.9834	-333.10559	-423.34027	936.8421	-304.02353	-381.17374	840.57361	-312.94962	-424.12015	838.85962	-279.33395	-397.09836	768.37335	-272.79175	-356.78262	942.15527	-721.52759	-372.05176	943.47992	-488.30438	-519.92987	979.42499	-685.01648	-526.78687	987.85773	-535.92743	-435.2178	645.06061	-773.60132	-450.74271	468.13837	-736.6189	-512.14471	285.58786	-755.41205	-538.88092	74.23424	-729.87604	-580.71277	37.40026	-697.09619	-386.86053	34.23227	-709.25909	-453.94284	652.5849	-443.11282	-455.54489	473.06808	-476.09802	-513.38177	293.40891	-463.83572	-547.04358	77.13966	-501.67789	-587.31232	42.66155	-553.34229	-404.82141	36.42127	-500.67026	-410.76422	1695.03711	-653.5105	NaN	NaN	NaN	NaN	NaN	NaN	NaN	NaN	NaN	NaN	NaN	NaN	NaN	NaN	NaN	NaN	NaN	NaN	NaN	NaN	NaN	NaN	NaN	NaN	NaN	NaN	NaN	NaN	NaN	NaN	NaN	NaN	NaN
175	1.74	-320.80978	1627.41907	-679.12817	-349.99539	1643.54724	-549.7663	-448.87772	1586.23486	-697.99445	-472.82819	1602.39172	-570.27881	-489.66336	1424.64099	-629.21466	-509.99088	1113.79553	-620.45361	-362.45697	1359.38525	-610.26733	-308.93137	1195.00537	-607.54254	-543.79559	1246.03564	-539.11676	-406.83676	1394.35608	-771.38519	-420.31256	1203.99426	-854.69733	-416.83041	1084.08691	-882.06213	-384.55786	959.02014	-900.70325	-350.42612	841.69116	-888.61578	-385.93515	848.16315	-931.87872	-361.53696	766.55975	-934.17004	-446.20163	1387.36304	-463.06787	-456.4523	1177.10999	-367.41046	-442.33151	1069.83923	-333.04755	-422.88467	936.66541	-303.9809	-380.73978	840.2608	-313.00009	-423.73431	838.48376	-279.6701	-396.73495	768.23157	-272.86075	-356.34979	942.12341	-721.48291	-371.55588	943.42053	-488.19965	-519.46997	979.42426	-684.90869	-526.41486	987.89575	-535.75	-434.98923	645.02087	-773.55951	-450.59216	468.10519	-736.60437	-512.10144	285.60773	-755.42413	-538.88678	74.26088	-729.83649	-580.71997	37.39074	-697.05304	-386.85815	34.22927	-709.26996	-453.59991	652.51642	-443.15149	-455.33914	473.02115	-476.10699	-513.27747	293.41599	-463.85577	-547.06451	77.15924	-501.67987	-587.1908	42.59499	-553.06616	-404.80823	36.39774	-500.69937	-410.12125	1695.01953	-653.37061	NaN	NaN	NaN	NaN	NaN	NaN	NaN	NaN	NaN	NaN	NaN	NaN	NaN	NaN	NaN	NaN	NaN	NaN	NaN	NaN	NaN	NaN	NaN	NaN	NaN	NaN	NaN	NaN	NaN	NaN	NaN	NaN	NaN
